<svg width="14" height="17" fill="none" xmlns="http://www.w3.org/2000/svg"><path d="M9.033 11.11h0a1.201 1.201 0 01-.666-1.077v-1.08l.113-.138c.052-.064.11-.14.17-.226h0c.302-.427.546-.904.723-1.42l.07-.203.195-.09a.558.558 0 00.329-.51V5.3a.564.564 0 00-.143-.37L9.7 4.788V3.156l.003-.025c.01-.108.054-.8-.437-1.36h0C8.85 1.296 8.128 1 7 1c-1.128 0-1.85.296-2.266.771l4.299 9.34zm0 0l2.547 1.274c.65.326 1.053.977 1.053 1.704v.812c0 .015-.012.147-.387.339-.347.177-.86.327-1.477.444C9.542 15.917 8.043 16 7 16c-1.043 0-2.542-.083-3.768-.317-.618-.117-1.131-.267-1.478-.444-.375-.192-.387-.324-.387-.339v-.864c0-.697.38-1.338.993-1.673l2.379-1.297h0c.387-.212.628-.617.628-1.058V8.956l-.103-.134a5.098 5.098 0 01-.847-1.749l-.04-.162-.132-.105a.56.56 0 01-.212-.44V5.3c0-.132.05-.264.143-.37l.124-.142V3.156m4.733 7.955L4.3 3.156m0 0l-.003-.025m.003.025l-.003-.025m0 0c-.01-.108-.053-.8.437-1.36l-.437 1.36z" stroke="#FDC31A"/></svg>