<svg width="50" height="40" fill="none" xmlns="http://www.w3.org/2000/svg"><path d="M11.594 40c-3.381 0-6.183-1.185-8.406-3.556C1.063 33.975 0 30.716 0 26.667 0 17.58 2.899 10.469 8.696 5.333A24.788 24.788 0 0117.39 0l1.45 3.704c-2.03.691-4.058 1.827-6.087 3.407C8.502 10.371 5.942 14.667 5.072 20l1.885-1.037c1.545-.79 3.091-1.185 4.637-1.185 2.899 0 5.41 1.136 7.536 3.407 2.223 2.173 3.334 4.74 3.334 7.704 0 2.963-1.111 5.58-3.334 7.852C17.005 38.914 14.493 40 11.594 40zm27.536 0c-3.381 0-6.183-1.185-8.405-3.556-2.126-2.469-3.189-5.728-3.189-9.777 0-9.087 2.899-16.198 8.696-21.334 2.415-2.37 5.314-4.148 8.696-5.333l1.449 3.704c-2.03.691-4.058 1.827-6.087 3.407-4.251 3.26-6.812 7.556-7.681 12.889l1.884-1.037c1.546-.79 3.091-1.185 4.637-1.185 2.899 0 5.411 1.136 7.537 3.407C48.889 23.358 50 25.925 50 28.89c0 2.963-1.111 5.58-3.333 7.852C44.54 38.914 42.029 40 39.13 40z" fill="#F8F8F8"/></svg>